<?xml version="1.0" encoding="UTF-8" standalone="no"?>
<!DOCTYPE svg PUBLIC "-//W3C//DTD SVG 1.1//EN" "http://www.w3.org/Graphics/SVG/1.1/DTD/svg11.dtd">
<svg width="100%" height="100%" viewBox="0 0 128 128" version="1.1" xmlns="http://www.w3.org/2000/svg" xmlns:xlink="http://www.w3.org/1999/xlink" xml:space="preserve" xmlns:serif="http://www.serif.com/" style="fill-rule:evenodd;clip-rule:evenodd;stroke-linejoin:round;stroke-miterlimit:2;">
    <g id="Background">
        <path d="M0,126.5L0,0C0.144,-0.24 0.217,0 3.5,0L127.999,0C128.239,0.144 127.999,0.217 127.999,3.5L127.999,127.999C127.855,128.239 127.782,127.999 124.5,127.999L-0,127.999C-0.429,127.742 0,127 0,126.5Z" style="fill:rgb(252,240,21);"/>
        <path d="M92.551,78.506C92.142,68.789 92.707,64.363 92.729,63.443C92.76,62.151 92.115,60.74 90.704,62.673C90.407,63.08 90.834,63.336 82.869,75.732C80.956,78.709 82.164,79.062 81.237,84.41C79.824,86.629 79.333,86.148 78.269,87.323C77.096,88.619 78.362,90.29 78.516,90.493C78.793,90.858 79.412,91.066 79.424,91.524C79.438,92.066 78.563,92.372 78.577,92.915C78.244,92.914 74.77,92.913 74.412,92.829C71.905,92.244 73.131,91.1 72.84,79.487C72.758,76.231 69.776,72.819 66.974,68.191C65.355,65.517 64.807,63.9 63.672,62.279C62.534,60.654 62.663,60.519 62.493,60.515C62.063,60.506 61.991,61.231 61.86,61.641C61.755,61.97 62.03,65.251 61.958,65.648C61.397,68.746 55.42,65.77 54.663,68.551C54.388,69.56 54.532,88.585 54.483,90.499C54.466,91.174 54.509,92.589 52.559,92.868C52.371,92.895 47.674,92.866 47.442,92.832C47.261,92.805 45.868,92.602 45.604,91.47C45.434,90.748 45.526,72.178 45.535,70.5C45.553,66.82 44.175,67.273 40.509,67.222C38.678,67.196 38.316,67.215 37.925,65.439C37.898,65.315 37.913,65.327 38.055,63.508C38.062,63.411 37.971,60.036 38.545,59.536C38.935,59.196 38.967,58.599 57.501,59.009C60.945,59.086 61.474,58.71 63.498,58.759C70.089,58.916 70.103,58.921 70.644,59.106C72.8,59.844 75.879,68.062 76.527,68.469C77.498,69.081 78.185,68.408 78.286,68.309C78.345,68.25 80.884,63.15 82.507,60.504C83.229,59.327 83.746,59.128 88.488,58.935C93.003,58.752 92.973,59.288 97.501,59.302C100.905,59.312 101.137,59.996 101.158,62.501C101.303,79.856 100.816,82.397 101.727,83.245C102.522,83.985 105.829,83.774 107.498,83.773C110.603,83.772 111.757,83.383 111.782,86.493C111.806,89.416 112.325,91.099 108.498,91.081C104.975,91.064 104.982,91.234 101.471,90.813C100.381,90.15 100.366,90.196 99.466,89.536C97.569,88.145 97.2,87.876 95.443,89.413C95.215,89.613 94.941,89.853 92.1,91.213C92.683,88.002 92.294,87.96 92.948,84.764C94.268,82.762 94.3,82.545 93.305,80.618C92.671,79.39 92.602,78.65 92.551,78.506Z" style="fill:rgb(18,97,151);"/>
        <path d="M37.582,47.939C39.616,47.421 39.735,47.625 41.352,46.288C42.414,45.411 42.324,44.92 43.476,44.926C44.614,44.933 44.38,45.396 44.361,46.518C44.231,53.961 44.16,54.116 43.886,54.713C43.224,56.159 39.064,56.535 37.532,56.867C34.018,57.629 32.79,56.77 28.416,55.748C23.016,54.486 11.47,45.849 16.351,29.446C16.745,28.124 19.699,22.948 23.432,20.404C31.907,14.63 38.313,16.479 41.508,17.472C45.28,18.644 44.014,20.745 44.265,25.495C44.336,26.837 44.871,27.001 43.974,27.98C42.949,29.099 42.714,28.412 41.534,27.45C38.211,24.74 33.335,25.248 30.725,26.864C22.219,32.133 24.75,44.952 32.469,47.584C34.939,48.427 34.986,48.143 37.582,47.939Z" style="fill:rgb(17,97,154);"/>
        <path d="M75.961,48.502C75.861,27.811 76.228,27.555 75.292,26.769C74.44,26.052 74.299,26.388 69.513,26.26C68.399,26.23 68.3,26.319 67.587,25.441C67.079,24.815 67.185,20.674 67.186,20.499C67.194,17.106 68.109,16.975 71.509,17.064C74.522,17.144 91.612,16.999 92.547,17.072C95.522,17.305 94.887,19.81 94.885,22.492C94.885,23.4 95.24,25.499 93.428,26.199C93.175,26.296 88.553,26.28 88.482,26.284C85.765,26.426 86.115,28.632 86.13,30.51C86.155,33.67 86.156,54.297 86.131,54.457C86.108,54.601 85.936,55.673 85.211,56.033C84.512,56.38 78.119,56.414 77.534,56.314C75.803,56.016 75.911,54.945 75.961,48.502Z" style="fill:rgb(18,98,153);"/>
        <path d="M15.936,68.492C16.133,65.902 16.092,64.624 17.706,62.667C22.354,57.029 29.934,58.305 33.641,60.23C35.73,61.315 35.449,62.376 34.142,65.315C32.922,68.061 32.053,66.233 29.307,64.986C27.282,64.065 24.865,65.185 24.306,66.387C22.485,70.302 29.404,71.434 31.603,72.223C38.639,74.749 37.928,81.173 37.211,83.416C34.095,93.167 23.086,92.77 18.613,90.291C16.368,89.047 14.285,87.687 15.899,84.751C17.517,81.81 18.217,81.75 18.538,81.723C19.626,81.63 19.565,81.895 20.371,82.64C26.109,87.945 29.136,83.271 29.314,82.454C30.357,77.649 22.241,78.089 18.413,74.595C15.785,72.197 16.081,70.118 15.936,68.492Z" style="fill:rgb(17,97,152);"/>
        <path d="M92.551,78.506C92.602,78.65 92.671,79.39 93.305,80.618C94.3,82.545 94.268,82.762 92.948,84.764C92.626,84.91 92.22,84.77 91.899,84.917C91.524,85.087 89.336,86.992 89.197,87.089C87.692,88.139 86.292,88.483 88.499,91.501C88.602,91.642 89.284,92.574 90.48,92.416C91.541,92.276 91.371,91.978 92.1,91.213C94.941,89.853 95.215,89.613 95.443,89.413C97.2,87.876 97.569,88.145 99.466,89.536C100.366,90.196 100.381,90.15 101.471,90.813C101.049,92.544 101.096,92.627 99.727,93.77C96.524,96.445 92.471,97.319 94.614,100.423C96.522,103.185 98.108,101.244 99.451,100.426C101.24,99.337 101.107,99.178 102.418,98.38C104.537,97.091 104.895,97.617 106.338,99.611C108.609,102.752 106.346,103.164 102.673,105.754C98.127,108.959 97.231,109.557 96.751,109.877C96.255,110.208 94.225,112.301 92.747,111.19C92.313,110.863 84.123,98.841 83.75,98.326C80.715,94.129 80.97,93.812 79.58,93.25C79.253,93.117 78.904,93.047 78.577,92.915C78.563,92.372 79.438,92.066 79.424,91.524C79.412,91.066 78.793,90.858 78.516,90.493C78.362,90.29 77.096,88.619 78.269,87.323C79.333,86.148 79.824,86.629 81.237,84.41C81.25,84.405 82.024,84.71 84.183,83.04C84.588,82.727 86.941,80.907 89.415,79.364C90.829,78.482 90.892,78.629 92.551,78.506Z" style="fill:rgb(227,51,50);"/>
        <path d="M103.503,56.385C102.001,56.155 101.672,56.643 100.86,55.344C100.514,54.792 100.641,48.691 100.654,23.501C100.656,18.937 100.044,17.219 103.474,17.107C110.376,16.88 110.287,17.592 110.347,17.653C110.9,18.205 110.912,18.31 110.913,29.502C110.915,54.563 110.977,54.622 110.532,55.521C109.968,56.661 107.236,56.393 103.503,56.385Z" style="fill:rgb(16,97,154);"/>
        <path d="M61.521,49.5C61.505,51.868 61.565,54.809 61.206,55.361C61.092,55.537 60.842,55.57 60.675,55.698C60.538,55.803 60.467,56.015 60.298,56.054C60.078,56.106 59.855,55.927 59.629,55.943C59.244,55.969 58.88,56.149 58.495,56.179C58.379,56.188 53.611,56.189 53.522,56.186C53.223,56.174 52.913,56.204 52.629,56.112C52.482,56.064 52.428,55.871 52.298,55.789C52.051,55.633 51.465,55.638 51.268,54.543C51.258,54.49 51.024,19.56 51.364,18.449C51.87,16.796 54.073,17.052 58.515,17.083C62.23,17.108 61.476,19.021 61.477,24.5C61.478,26.5 61.483,40.75 61.521,49.5Z" style="fill:rgb(16,96,156);"/>
        <path d="M92.551,78.506C90.892,78.629 90.829,78.482 89.415,79.364C86.941,80.907 84.588,82.727 84.183,83.04C82.024,84.71 81.25,84.405 81.237,84.41C82.164,79.062 80.956,78.709 82.869,75.732C90.834,63.336 90.407,63.08 90.704,62.673C92.115,60.74 92.76,62.151 92.729,63.443C92.707,64.363 92.142,68.789 92.551,78.506Z" style="fill:rgb(248,242,40);"/>
        <path d="M92.948,84.764C92.294,87.96 92.683,88.002 92.1,91.213C91.371,91.978 91.541,92.276 90.48,92.416C89.284,92.574 88.602,91.642 88.499,91.501C86.292,88.483 87.692,88.139 89.197,87.089C89.336,86.992 91.524,85.087 91.899,84.917C92.22,84.77 92.626,84.91 92.948,84.764Z" style="fill:rgb(250,242,49);"/>
    </g>
</svg>
